<?xml version="1.0" standalone="no"?>
<!DOCTYPE svg PUBLIC "-//W3C//DTD SVG 20010904//EN"
 "http://www.w3.org/TR/2001/REC-SVG-20010904/DTD/svg10.dtd">
<svg version="1.0" xmlns="http://www.w3.org/2000/svg"
 width="260.000000pt" height="260.000000pt" viewBox="0 0 260.000000 260.000000"
 preserveAspectRatio="xMidYMid meet">
<metadata>
Created by potrace 1.14, written by Peter Selinger 2001-2017
</metadata>
<g transform="translate(0.000000,260.000000) scale(0.100000,-0.100000)"
fill="#000000" stroke="none">
<path d="M2570 2487 c0 -7 5 -18 10 -25 7 -9 7 -9 -2 -2 -18 15 -38 12 -32 -5
4 -8 10 -12 15 -9 5 3 9 0 9 -5 0 -6 -4 -11 -9 -11 -16 0 -31 27 -25 44 3 9 1
16 -6 16 -6 0 -9 -4 -5 -9 3 -5 1 -12 -5 -16 -6 -4 -8 -10 -6 -14 8 -12 -34
-52 -46 -45 -8 5 -9 1 -5 -10 4 -10 1 -19 -8 -22 -8 -4 -12 -11 -8 -17 3 -5 2
-7 -4 -4 -12 7 -86 -41 -79 -52 3 -4 1 -12 -3 -19 -4 -8 -11 -5 -20 9 -7 12
-8 18 -3 15 6 -4 8 3 4 16 -5 19 -7 20 -10 5 -3 -15 -6 -16 -20 -5 -9 7 -7 1
5 -15 20 -26 22 -64 2 -51 -5 3 -10 -5 -10 -18 -1 -17 -3 -18 -6 -5 -2 9 -9
17 -14 17 -6 0 -8 4 -5 8 2 4 0 14 -5 22 -8 13 -9 12 -7 -2 3 -15 -36 -58 -54
-58 -4 0 -8 -8 -8 -17 0 -14 -2 -15 -9 -4 -6 9 -11 10 -15 2 -4 -6 -1 -11 6
-11 7 0 4 -8 -9 -21 -21 -21 -50 -18 -37 3 4 7 2 8 -4 4 -9 -5 -9 -12 0 -26 8
-13 16 -16 23 -10 8 7 12 5 12 -5 0 -8 -3 -13 -5 -10 -3 3 -11 -4 -19 -15 -8
-11 -23 -20 -34 -20 -10 0 -20 -6 -20 -12 -1 -7 -2 -19 -3 -25 0 -7 -5 -13
-11 -14 -5 -1 -24 -15 -41 -33 -27 -28 -33 -30 -45 -17 -11 13 -11 14 4 8 12
-5 16 -3 11 5 -5 7 -3 8 6 3 9 -6 11 -4 5 5 -6 9 -4 11 5 5 9 -6 11 -4 5 5 -6
9 -4 11 5 5 9 -5 11 -4 6 4 -5 7 -2 10 5 9 12 -3 14 8 10 43 0 5 -6 7 -12 3
-8 -5 -8 -9 1 -14 7 -5 -2 -18 -29 -40 -33 -27 -38 -37 -30 -52 5 -10 6 -18 2
-17 -22 4 -25 -3 -7 -17 18 -14 18 -15 -4 -4 -12 6 -27 8 -32 5 -5 -3 -12 0
-16 6 -4 7 -3 9 3 6 6 -4 18 0 28 7 14 10 15 15 5 21 -9 5 -11 4 -6 -3 6 -10
-6 -17 -18 -9 -2 1 -12 -6 -22 -15 -11 -9 -23 -17 -29 -17 -5 -1 -10 -7 -10
-13 0 -18 -27 -48 -37 -42 -4 3 -5 -2 -2 -11 7 -16 30 -15 27 1 0 5 5 15 13
22 11 10 14 10 14 0 0 -6 6 -3 14 7 7 10 24 20 37 22 18 2 20 1 9 -6 -8 -5
-18 -7 -24 -4 -5 4 -7 -1 -3 -11 4 -10 3 -15 -3 -11 -6 3 -13 -1 -16 -10 -6
-14 -9 -14 -16 -3 -7 9 -8 7 -5 -9 4 -16 1 -20 -11 -16 -10 4 -13 2 -8 -5 3
-6 1 -14 -5 -18 -8 -5 -9 -3 -4 6 6 9 1 10 -16 5 -17 -4 -20 -3 -10 3 9 7 10
12 2 16 -6 4 -11 2 -11 -4 0 -6 -4 -8 -10 -5 -6 4 -7 -1 -3 -11 4 -12 3 -15
-5 -10 -8 5 -10 2 -6 -9 5 -12 10 -13 17 -6 14 14 27 14 27 1 0 -5 -6 -9 -12
-7 -7 1 -12 -4 -11 -10 2 -7 -3 -12 -10 -10 -6 1 -11 -4 -10 -10 2 -7 -2 -13
-7 -13 -6 0 -9 10 -6 23 3 18 -1 23 -19 23 -22 0 -28 -17 -10 -33 4 -4 5 -3 1
4 -3 6 -2 15 4 18 7 4 10 -2 8 -17 -4 -27 -27 -69 -28 -50 0 7 -4 11 -10 7 -5
-3 -7 -12 -3 -20 3 -8 1 -15 -4 -15 -5 0 -9 11 -9 24 0 14 4 22 8 20 4 -3 8 1
8 8 0 10 2 10 9 -1 5 -7 11 -9 14 -4 3 5 -3 15 -15 22 -11 7 -17 8 -13 2 3 -6
-1 -11 -10 -11 -9 0 -15 -6 -14 -12 4 -31 -2 -40 -20 -35 -12 3 -22 -1 -25
-10 -3 -8 -11 -11 -17 -7 -7 4 -9 3 -6 -3 9 -15 -48 -64 -62 -52 -8 6 -8 6 -1
-3 11 -13 43 -21 35 -8 -3 5 -1 11 4 14 5 3 11 -1 15 -9 3 -8 1 -15 -5 -15 -6
0 -7 -6 -3 -12 5 -9 2 -9 -9 1 -9 7 -17 10 -17 7 0 -4 -9 -2 -19 4 -14 7 -22
7 -27 -2 -5 -7 -3 -8 6 -3 10 6 12 4 7 -9 -4 -10 -3 -15 3 -11 6 3 10 1 10 -4
0 -6 -9 -11 -20 -11 -11 0 -19 5 -17 11 1 6 -4 13 -11 15 -7 1 -8 0 -2 -3 8
-3 7 -9 -1 -19 -14 -17 -33 -19 -23 -2 4 6 3 8 -4 4 -6 -3 -9 -16 -7 -27 3
-16 0 -19 -12 -15 -13 5 -14 4 -4 -8 8 -10 9 -16 1 -21 -13 -8 -13 -25 0 -25
6 0 10 7 10 15 0 8 5 15 11 15 5 0 7 5 3 12 -5 7 -3 8 7 3 11 -7 11 -5 -1 10
-13 17 -13 18 1 13 9 -4 21 -2 27 4 6 6 12 6 16 0 3 -6 2 -13 -4 -17 -5 -3
-10 -3 -10 1 0 4 -9 -5 -20 -19 -23 -29 -26 -42 -7 -31 6 4 8 3 4 -1 -13 -14
-41 -15 -57 -1 -26 22 -38 27 -45 16 -4 -6 -3 -10 2 -9 18 3 33 -1 33 -10 0
-5 -15 -8 -32 -6 -18 1 -25 0 -15 -2 9 -2 17 -13 17 -24 0 -11 -5 -17 -10 -14
-6 4 -7 11 -4 17 4 6 -7 3 -24 -8 -21 -12 -28 -21 -20 -25 15 -9 30 -1 23 12
-4 5 -1 9 5 9 7 0 10 -6 7 -14 -3 -8 -1 -17 6 -19 7 -2 8 -8 3 -13 -5 -5 -11
-4 -13 4 -3 6 -9 9 -14 6 -6 -3 -5 -12 3 -22 12 -16 11 -16 -6 -2 -11 8 -21
14 -23 12 -3 -2 -8 0 -11 4 -4 4 -2 4 5 0 6 -3 14 -2 17 3 4 5 -2 8 -11 7 -10
-2 -19 -8 -19 -14 -3 -25 -5 -27 -15 -12 -9 13 -10 12 -5 -2 3 -10 1 -20 -4
-23 -6 -4 -10 -1 -10 6 0 7 -7 4 -15 -7 -8 -10 -14 -23 -14 -29 0 -5 6 -1 14
9 10 13 15 15 15 6 0 -10 4 -9 13 4 12 17 14 17 28 -1 13 -17 13 -17 -5 -3
-18 14 -18 13 -13 -10 4 -14 4 -19 1 -11 -5 11 -10 8 -21 -10 l-14 -24 7 25
c5 20 4 23 -7 13 -15 -15 -43 -18 -35 -4 4 5 -4 7 -16 3 -21 -5 -21 -5 3 -15
13 -6 29 -9 34 -8 6 2 7 -1 2 -5 -4 -4 -18 -9 -30 -11 -17 -2 -19 -1 -7 7 9 6
10 10 3 10 -6 0 -15 -5 -18 -10 -4 -6 -11 -8 -16 -4 -5 3 -6 10 -3 16 4 7 2 8
-5 4 -9 -6 -9 -11 -1 -21 7 -9 6 -16 -3 -24 -8 -6 -17 -8 -20 -4 -4 3 -7 1 -7
-6 0 -8 6 -11 17 -7 10 4 14 4 10 0 -4 -4 -2 -13 4 -20 7 -8 7 -14 -1 -19 -6
-4 -9 -1 -8 6 2 6 -3 14 -11 17 -8 3 -11 0 -7 -7 4 -6 2 -11 -3 -11 -11 0 -12
5 -15 47 -1 23 -12 31 -24 17 -4 -4 -2 -4 5 0 8 4 11 -1 10 -14 -1 -11 -5 -20
-9 -20 -5 0 -4 -10 2 -22 10 -21 10 -22 -4 -5 -8 10 -17 18 -20 18 -3 -1 -5 2
-3 7 1 4 5 6 9 4 5 -1 8 2 8 8 0 16 -30 12 -36 -5 -4 -8 -11 -15 -17 -15 -6 0
-7 3 -4 7 4 3 1 13 -6 22 -11 14 -10 14 6 2 27 -21 20 3 -8 27 -14 12 -32 19
-42 16 -10 -3 -2 4 17 15 35 20 33 26 -15 33 -11 2 -23 8 -27 13 -5 6 -8 5 -8
-2 0 -7 -8 -13 -18 -13 -11 0 -24 -10 -31 -22 -11 -23 -11 -23 -6 2 6 24 5 24
-9 6 -9 -11 -16 -14 -16 -7 0 7 -4 9 -10 6 -6 -3 -7 1 -4 10 4 11 2 14 -9 10
-18 -7 -53 25 -38 34 7 4 3 13 -9 24 -11 9 -17 23 -14 32 4 9 -2 25 -12 37
-11 12 -14 18 -8 15 7 -4 15 0 18 9 3 8 11 12 17 8 8 -4 9 -3 5 4 -5 9 -13 9
-29 1 -21 -10 -21 -9 2 10 13 12 18 22 12 22 -26 3 -30 4 -37 12 -4 4 -2 7 5
7 7 0 9 5 5 11 -5 8 -10 6 -16 -5 -9 -16 -12 -16 -33 -2 -13 9 -30 13 -38 10
-8 -3 -18 -1 -22 5 -4 7 1 8 12 4 16 -6 16 -5 5 10 -8 8 -19 15 -25 13 -7 -1
-9 -1 -4 1 14 8 -4 22 -21 17 -14 -5 -14 -4 -2 4 8 6 19 8 25 5 5 -4 7 -3 3 2
-4 4 -3 14 3 21 6 7 6 14 1 18 -6 3 -16 -2 -23 -11 -12 -14 -12 -16 0 -8 10 5
12 4 7 -3 -12 -19 -29 -14 -21 6 12 28 14 62 3 62 -5 0 -7 -9 -3 -20 5 -15 3
-18 -9 -14 -9 3 -13 10 -10 15 3 5 2 9 -3 8 -14 -4 -43 13 -38 21 3 5 1 11 -4
15 -6 3 -9 11 -7 18 1 7 1 9 -1 5 -3 -5 -9 -8 -14 -8 -6 0 -7 5 -3 12 4 6 3 8
-4 4 -6 -3 -17 3 -25 14 -7 11 -17 17 -20 13 -4 -3 -7 -1 -7 5 0 7 5 12 11 12
5 0 7 5 3 11 -4 8 -9 7 -15 -2 -5 -8 -9 -10 -9 -5 0 4 -11 1 -25 -8 -14 -9
-25 -13 -24 -9 3 20 -2 34 -10 28 -5 -3 -12 -1 -16 5 -4 6 -12 7 -18 3 -7 -4
-6 0 2 10 14 18 36 13 25 -5 -4 -6 -2 -8 4 -4 6 3 14 0 19 -8 7 -13 11 -12 30
2 17 13 20 20 12 32 -9 13 -10 13 -6 -2 7 -20 -20 -33 -38 -18 -7 6 -11 20 -8
30 3 11 0 20 -6 20 -6 0 -8 -7 -4 -17 4 -11 3 -14 -5 -9 -6 4 -21 2 -32 -4
-11 -6 -20 -7 -20 -2 0 6 9 12 21 15 12 3 18 10 15 15 -3 6 0 13 6 15 10 4 10
6 0 6 -7 1 -11 5 -8 9 3 5 -1 9 -9 9 -12 0 -12 -3 -2 -16 10 -12 9 -14 -8 -8
-19 7 -19 7 -1 -7 18 -14 18 -15 -2 -13 -11 0 -20 6 -19 12 1 5 -3 9 -8 8 -6
-1 -12 10 -13 24 -2 21 2 24 17 20 14 -3 18 -1 14 9 -3 8 -9 11 -14 8 -13 -7
-51 15 -44 27 4 5 12 6 18 3 7 -4 8 -3 4 1 -10 12 -38 15 -31 4 10 -17 -5 -9
-33 17 -15 14 -27 34 -25 43 2 9 -1 12 -5 6 -8 -10 -15 -12 -51 -18 -27 -4
-43 -17 -36 -29 4 -6 2 -8 -4 -5 -7 5 -7 14 1 31 8 17 15 22 23 15 13 -11 31
7 20 18 -3 4 -6 1 -6 -6 0 -7 -5 -9 -10 -6 -6 4 -7 11 -4 17 4 7 2 8 -4 4 -7
-4 -12 -2 -12 3 0 6 -5 11 -11 11 -8 0 -7 -6 2 -17 12 -15 12 -16 -5 -10 -16
6 -17 5 -6 -8 11 -13 10 -14 -4 -9 -11 4 -15 2 -13 -7 2 -8 2 -11 0 -6 -3 4
-8 5 -12 3 -4 -3 -8 1 -8 9 0 8 4 12 9 9 4 -3 5 2 2 10 -3 8 -13 17 -21 20
-12 5 -13 4 -5 -7 9 -10 8 -18 -3 -33 -8 -10 -15 -15 -15 -10 0 6 -7 1 -16
-10 -14 -18 -15 -18 -4 4 7 15 8 22 0 22 -6 0 -13 -7 -16 -15 -5 -12 -8 -12
-20 0 -20 19 -18 25 8 20 16 -4 19 -2 10 7 -7 7 -18 13 -26 14 -13 2 -15 -135
-16 -1062 l0 -1064 1300 0 1300 0 0 1240 c0 927 -3 1239 -12 1234 -8 -5 -9 -2
-5 9 3 10 2 17 -3 17 -6 0 -10 -6 -10 -13z m-295 -247 c-3 -5 0 -10 7 -10 8 0
6 -5 -5 -11 -9 -6 -14 -16 -11 -22 5 -8 3 -8 -7 1 -19 17 -34 15 -19 -3 10
-13 11 -18 1 -28 -10 -9 -11 -8 -5 6 6 17 5 18 -14 6 -11 -7 -19 -16 -17 -19
2 -3 0 -12 -4 -19 -6 -10 -10 -9 -14 3 -4 9 4 23 20 36 14 11 22 20 17 20 -5
0 5 11 21 25 33 27 39 30 30 15z m90 -8 c-3 -3 -11 0 -18 7 -9 10 -8 11 6 5
10 -3 15 -9 12 -12z m-65 -32 c0 -5 -2 -10 -4 -10 -3 0 -8 5 -11 10 -3 6 -1
10 4 10 6 0 11 -4 11 -10z m-55 -68 c-3 -3 -11 0 -18 7 -9 10 -8 11 6 5 10 -3
15 -9 12 -12z m-1941 -106 c16 -14 33 -26 38 -26 5 0 6 -6 1 -12 -4 -7 -7 -22
-6 -33 1 -16 1 -16 -3 -2 -3 9 -10 17 -15 17 -5 0 -9 5 -9 11 0 5 5 7 10 4 6
-3 10 -2 10 3 0 18 -30 22 -31 4 0 -14 -2 -14 -9 3 -10 23 -51 61 -63 57 -5
-1 -6 2 -2 8 3 5 0 10 -7 10 -9 0 -9 3 2 10 10 6 21 4 35 -9 11 -10 33 -30 49
-45z m1821 34 c3 -5 1 -10 -4 -10 -6 0 -11 5 -11 10 0 6 2 10 4 10 3 0 8 -4
11 -10z m-85 -90 c-6 -11 -15 -20 -20 -20 -6 0 -2 9 7 20 10 11 19 20 21 20 1
0 -2 -9 -8 -20z m-120 -45 c-13 -15 -30 -12 -30 6 0 6 4 8 9 4 5 -3 13 0 16 6
4 5 9 8 12 5 3 -3 0 -12 -7 -21z m-1485 -85 c3 -6 -1 -7 -9 -4 -18 7 -21 14
-7 14 6 0 13 -4 16 -10z m60 0 c-3 -5 -2 -10 3 -10 13 0 99 -71 92 -76 -3 -2
11 -15 30 -29 32 -23 33 -25 10 -22 -14 2 -23 7 -20 10 3 4 -11 17 -30 31 -27
19 -38 21 -50 13 -8 -7 -6 -2 4 11 19 22 11 31 -12 12 -9 -7 -9 -7 -2 2 14 17
12 28 -6 28 -9 0 -12 -5 -8 -12 4 -7 3 -8 -5 -4 -6 4 -9 11 -6 16 3 5 1 11 -5
15 -5 3 -10 1 -10 -6 0 -7 -3 -9 -6 -6 -4 4 -1 13 6 22 14 17 25 20 15 5z
m1291 -110 c0 -12 -4 -16 -9 -11 -5 5 -6 14 -3 20 10 15 12 14 12 -9z m-1256
-10 c0 -5 -2 -10 -4 -10 -3 0 -8 5 -11 10 -3 6 -1 10 4 10 6 0 11 -4 11 -10z
m55 1 c3 -5 2 -12 -3 -15 -5 -3 -9 1 -9 9 0 17 3 19 12 6z m1141 -24 c4 -3 -2
-6 -12 -6 -42 -1 -54 -5 -51 -15 2 -6 12 -10 22 -9 12 1 14 -2 6 -10 -7 -7
-15 -6 -27 4 -16 12 -17 12 -11 -5 6 -16 5 -17 -7 -7 -13 11 -12 16 6 36 18
21 58 28 74 12z m-1086 -13 c0 -8 -19 -13 -24 -6 -3 5 1 9 9 9 8 0 15 -2 15
-3z m1030 -58 c0 -3 -4 -8 -10 -11 -5 -3 -10 -1 -10 4 0 6 5 11 10 11 6 0 10
-2 10 -4z m-63 -37 c-1 -10 -5 -19 -10 -19 -5 0 -7 6 -4 14 3 7 0 19 -6 25 -9
9 -8 11 5 6 9 -4 16 -15 15 -26z m-870 -5 c-3 -3 -12 -4 -19 -1 -8 3 -5 6 6 6
11 1 17 -2 13 -5z m63 -14 c3 -1 10 -2 15 0 6 1 4 -4 -3 -12 -11 -11 -14 -10
-22 2 -5 8 -10 10 -10 4 0 -6 -6 -11 -13 -11 -8 0 -14 6 -14 12 0 9 28 12 47
5z m-13 -52 c-3 -8 -6 -5 -6 6 -1 11 2 17 5 13 3 -3 4 -12 1 -19z m-17 8 c0
-3 -4 -8 -10 -11 -5 -3 -10 -1 -10 4 0 6 5 11 10 11 6 0 10 -2 10 -4z m44 -44
c3 -5 -1 -9 -9 -9 -8 0 -12 4 -9 9 3 4 7 8 9 8 2 0 6 -4 9 -8z m646 -4 c0 -4
-7 -8 -15 -8 -8 0 -15 4 -15 8 0 5 7 9 15 9 8 0 15 -4 15 -9z m-10 -22 c0 -2
-7 -9 -15 -16 -13 -11 -14 -10 -9 4 5 14 24 23 24 12z m-626 -34 c3 -5 -1 -9
-9 -9 -8 0 -12 4 -9 9 3 4 7 8 9 8 2 0 6 -4 9 -8z m537 -36 c5 3 9 0 9 -6 0
-7 -7 -9 -16 -6 -9 3 -18 6 -20 6 -3 0 -2 5 2 12 6 9 9 9 12 0 2 -7 8 -10 13
-6z m-366 -26 c-3 -5 -2 -10 4 -10 5 0 11 4 13 9 2 4 11 6 20 2 14 -5 10 -9
-17 -17 -19 -6 -32 -7 -29 -2 3 4 -1 8 -8 8 -9 0 -9 3 2 10 19 12 23 12 15 0z
m49 -58 c2 -4 -4 -8 -14 -8 -10 0 -16 4 -14 8 3 4 9 8 14 8 5 0 11 -4 14 -8z
m286 -2 c0 -5 -2 -10 -4 -10 -3 0 -8 5 -11 10 -3 6 -1 10 4 10 6 0 11 -4 11
-10z m-71 -13 c13 4 14 3 1 -5 -8 -6 -17 -9 -21 -6 -10 6 -19 -22 -11 -32 4
-5 -1 -1 -11 10 -13 14 -15 22 -6 33 8 9 16 10 22 4 5 -5 17 -7 26 -4z m-93
-89 c3 -4 -1 -5 -10 -4 -8 1 -18 5 -22 8 -3 4 1 5 10 4 8 -1 18 -5 22 -8z"/>
<path d="M260 2045 c19 -19 36 -35 39 -35 3 0 -10 16 -29 35 -19 19 -36 35
-39 35 -3 0 10 -16 29 -35z"/>
<path d="M2470 2480 c-9 -6 -10 -10 -3 -10 6 0 15 5 18 10 8 12 4 12 -15 0z"/>
<path d="M2492 2469 c-8 -12 -20 -18 -27 -15 -8 3 -14 2 -14 -2 3 -21 -2 -32
-13 -26 -7 4 -8 3 -4 -4 8 -13 -32 -37 -54 -34 -11 2 -11 0 2 -8 10 -6 15 -17
11 -27 -4 -11 -3 -14 6 -9 7 5 10 14 7 22 -3 7 4 18 14 24 14 7 20 7 20 0 0
-5 -4 -10 -10 -10 -5 0 -10 -5 -10 -10 0 -6 8 -5 19 2 14 9 17 16 10 24 -11
14 5 29 20 20 4 -3 16 3 26 14 12 14 14 20 5 20 -10 0 -10 3 0 15 7 9 11 17 9
20 -3 2 -10 -5 -17 -16z m-8 -34 c-4 -8 -11 -12 -16 -9 -6 4 -5 10 3 15 19 12
19 11 13 -6z"/>
<path d="M2348 2344 c6 -12 8 -25 4 -30 -4 -5 1 -2 11 5 9 8 16 14 15 15 -2 1
-12 8 -22 16 -18 14 -19 14 -8 -6z"/>
<path d="M2291 2298 c9 -7 14 -19 12 -26 -3 -7 1 -10 11 -6 19 7 13 20 -17 34
-19 10 -20 9 -6 -2z"/>
<path d="M2213 2245 c0 -8 4 -12 9 -9 5 3 6 10 3 15 -9 13 -12 11 -12 -6z"/>
<path d="M44 2139 c-4 -8 -3 -9 4 -5 7 4 12 1 12 -7 0 -8 7 -20 15 -27 12 -10
15 -9 15 4 0 10 -4 14 -10 11 -5 -3 -10 1 -10 9 0 20 -17 29 -26 15z"/>
<path d="M2125 2137 c12 -10 14 -16 7 -21 -7 -4 -12 -2 -12 5 0 6 -9 1 -21
-12 l-20 -24 7 25 c3 14 3 22 -1 18 -10 -9 -15 -58 -7 -58 4 0 13 9 20 20 7
12 16 19 20 16 5 -3 14 -1 22 4 11 7 11 11 1 24 -8 9 -18 16 -24 16 -6 0 -3
-6 8 -13z"/>
<path d="M225 2120 c-3 -6 1 -7 9 -4 18 7 21 14 7 14 -6 0 -13 -4 -16 -10z"/>
<path d="M280 2080 c8 -5 20 -10 25 -10 6 0 3 5 -5 10 -8 5 -19 10 -25 10 -5
0 -3 -5 5 -10z"/>
<path d="M2075 2050 c3 -5 8 -10 11 -10 2 0 4 5 4 10 0 6 -5 10 -11 10 -5 0
-7 -4 -4 -10z"/>
<path d="M1941 1994 c0 -11 3 -14 6 -6 3 7 2 16 -1 19 -3 4 -6 -2 -5 -13z"/>
<path d="M1905 1980 c-3 -6 1 -7 9 -4 18 7 21 14 7 14 -6 0 -13 -4 -16 -10z"/>
<path d="M365 1960 c3 -5 8 -10 11 -10 2 0 4 5 4 10 0 6 -5 10 -11 10 -5 0 -7
-4 -4 -10z"/>
<path d="M1800 1876 c7 -7 13 -7 20 0 6 6 3 10 -10 10 -13 0 -16 -4 -10 -10z"/>
<path d="M546 1837 c3 -10 9 -15 12 -12 3 3 0 11 -7 18 -10 9 -11 8 -5 -6z"/>
<path d="M1685 1740 c3 -5 8 -10 11 -10 2 0 4 5 4 10 0 6 -5 10 -11 10 -5 0
-7 -4 -4 -10z"/>
<path d="M1576 1687 c3 -10 9 -15 12 -12 3 3 0 11 -7 18 -10 9 -11 8 -5 -6z"/>
<path d="M701 1671 c-8 -14 -6 -22 8 -35 10 -9 21 -13 24 -9 4 3 7 1 7 -5 0
-6 10 -17 23 -23 12 -6 19 -8 15 -4 -4 5 -3 14 2 20 7 9 6 16 -5 25 -10 9 -15
9 -15 1 0 -6 5 -11 12 -11 9 0 9 -3 0 -12 -10 -10 -15 -10 -22 2 -5 8 -6 18
-3 24 3 5 1 6 -4 3 -14 -9 -37 19 -28 33 3 5 4 10 1 10 -3 0 -10 -8 -15 -19z
m20 -28 c13 -16 12 -17 -3 -4 -10 7 -18 15 -18 17 0 8 8 3 21 -13z"/>
<path d="M815 1621 c-3 -5 -2 -12 3 -15 5 -3 9 1 9 9 0 17 -3 19 -12 6z"/>
<path d="M1456 1587 c3 -10 9 -15 12 -12 3 3 0 11 -7 18 -10 9 -11 8 -5 -6z"/>
<path d="M856 1547 c3 -10 9 -15 12 -12 3 3 0 11 -7 18 -10 9 -11 8 -5 -6z"/>
<path d="M827 1513 c-4 -3 0 -14 9 -24 11 -12 12 -19 4 -24 -8 -5 -6 -13 7
-27 10 -11 18 -27 18 -36 0 -10 8 -17 18 -17 10 0 22 -6 26 -14 6 -9 11 -10
15 -2 4 6 12 9 17 6 5 -4 9 -1 9 5 0 6 4 9 9 5 6 -3 15 5 21 17 9 19 9 21 -2
8 -7 -8 -18 -16 -23 -17 -6 -1 -19 -5 -30 -8 -17 -7 -17 -5 3 9 12 10 22 23
22 29 0 7 -5 4 -11 -5 -5 -9 -16 -15 -24 -12 -8 4 -12 11 -8 18 4 6 0 6 -9 -2
-10 -8 -19 -9 -22 -3 -3 5 -1 11 6 13 8 3 8 9 0 24 -6 10 -12 13 -12 6 0 -7
-5 -10 -10 -7 -6 4 -8 10 -5 15 3 5 -2 15 -10 23 -11 12 -12 17 -2 20 7 3 7 6
1 6 -6 1 -14 -2 -17 -6z m48 -65 c5 4 5 1 1 -6 -6 -10 -11 -10 -22 -1 -8 6
-14 14 -14 16 0 3 6 0 13 -6 8 -6 18 -7 22 -3z m31 -50 c3 -4 -1 -5 -10 -4 -8
1 -18 5 -22 8 -3 4 1 5 10 4 8 -1 18 -5 22 -8z"/>
<path d="M866 1497 c3 -10 9 -15 12 -12 3 3 0 11 -7 18 -10 9 -11 8 -5 -6z"/>
<path d="M1353 1475 c0 -8 4 -12 9 -9 5 3 6 10 3 15 -9 13 -12 11 -12 -6z"/>
<path d="M900 1460 c8 -5 20 -10 25 -10 6 0 3 5 -5 10 -8 5 -19 10 -25 10 -5
0 -3 -5 5 -10z"/>
<path d="M1313 1435 c0 -8 4 -12 9 -9 5 3 6 10 3 15 -9 13 -12 11 -12 -6z"/>
<path d="M1175 1351 c-3 -5 -2 -12 3 -15 5 -3 9 1 9 9 0 17 -3 19 -12 6z"/>
<path d="M1090 1341 c0 -6 -10 -8 -22 -6 -21 4 -21 3 5 -22 25 -26 28 -26 44
-10 14 14 15 19 4 29 -10 11 -11 9 -5 -6 5 -14 3 -17 -7 -14 -8 3 -13 12 -11
22 2 9 0 16 -3 16 -3 0 -5 -4 -5 -9z m1 -28 c13 -16 12 -17 -3 -4 -10 7 -18
15 -18 17 0 8 8 3 21 -13z"/>
</g>
</svg>
